<svg width="256" height="256" viewBox="0 0 256 256" fill="none" xmlns="http://www.w3.org/2000/svg">
<g clip-path="url(#clip0_107_1)">
<mask id="mask0_107_1" style="mask-type:alpha" maskUnits="userSpaceOnUse" x="0" y="0" width="256" height="256">
<rect width="256" height="256" rx="42" fill="#C4C4C4"/>
</mask>
<g mask="url(#mask0_107_1)">
<rect width="256" height="256" fill="#EAECF9"/>
<path d="M140.462 197.002C126.509 197.002 114.436 194.272 104.244 188.812C94.1734 183.352 86.3474 175.647 80.7661 165.698C75.3061 155.749 72.5761 144.101 72.5761 130.754C72.5761 117.407 75.3061 105.82 80.7661 95.992C86.3474 86.0427 94.1734 78.338 104.244 72.878C114.436 67.418 126.509 64.688 140.462 64.688C149.319 64.688 157.388 65.9013 164.668 68.328C171.948 70.6333 178.075 73.97 183.05 78.338L173.04 104.728C167.459 100.724 162.302 97.9333 157.57 96.356C152.959 94.6573 147.681 93.808 141.736 93.808C130.816 93.808 122.383 97.0233 116.438 103.454C110.614 109.763 107.702 118.863 107.702 130.754C107.702 142.766 110.614 151.987 116.438 158.418C122.383 164.727 130.816 167.882 141.736 167.882C147.681 167.882 152.959 167.093 157.57 165.516C162.302 163.817 167.459 160.966 173.04 156.962L183.05 183.352C178.075 187.72 171.948 191.117 164.668 193.544C157.388 195.849 149.319 197.002 140.462 197.002Z" fill="black"/>
</g>
</g>
<defs>
<clipPath id="clip0_107_1">
<rect width="256" height="256" fill="white"/>
</clipPath>
</defs>
</svg>
