<svg width="107" height="20" viewBox="0 0 107 20" fill="none" xmlns="http://www.w3.org/2000/svg">
<path d="M8.38 15.22C6.84667 15.22 5.52 14.92 4.4 14.32C3.29333 13.72 2.43333 12.8733 1.82 11.78C1.22 10.6867 0.92 9.40667 0.92 7.94C0.92 6.47333 1.22 5.2 1.82 4.12C2.43333 3.02667 3.29333 2.18 4.4 1.58C5.52 0.98 6.84667 0.68 8.38 0.68C9.35333 0.68 10.24 0.813333 11.04 1.08C11.84 1.33333 12.5133 1.7 13.06 2.18L11.96 5.08C11.3467 4.64 10.78 4.33333 10.26 4.16C9.75333 3.97333 9.17333 3.88 8.52 3.88C7.32 3.88 6.39333 4.23333 5.74 4.94C5.1 5.63333 4.78 6.63333 4.78 7.94C4.78 9.26 5.1 10.2733 5.74 10.98C6.39333 11.6733 7.32 12.02 8.52 12.02C9.17333 12.02 9.75333 11.9333 10.26 11.76C10.78 11.5733 11.3467 11.26 11.96 10.82L13.06 13.72C12.5133 14.2 11.84 14.5733 11.04 14.84C10.24 15.0933 9.35333 15.22 8.38 15.22ZM14.7914 15V0.279999H18.3514V6.62H18.0514C18.3847 5.96667 18.8581 5.47333 19.4714 5.14C20.0847 4.79333 20.7847 4.62 21.5714 4.62C22.7581 4.62 23.6447 4.97333 24.2314 5.68C24.8181 6.38667 25.1114 7.46 25.1114 8.9V15H21.5514V9.06C21.5514 8.44667 21.4381 8.00667 21.2114 7.74C20.9981 7.47333 20.6714 7.34 20.2314 7.34C19.6581 7.34 19.1981 7.52 18.8514 7.88C18.5181 8.24 18.3514 8.71333 18.3514 9.3V15H14.7914ZM31.2523 15.22C30.3723 15.22 29.599 15.0133 28.9323 14.6C28.2657 14.1733 27.739 13.56 27.3523 12.76C26.979 11.96 26.7923 11.0133 26.7923 9.92C26.7923 8.81333 26.979 7.86667 27.3523 7.08C27.739 6.28 28.2657 5.67333 28.9323 5.26C29.599 4.83333 30.3723 4.62 31.2523 4.62C32.039 4.62 32.7457 4.80667 33.3723 5.18C34.0123 5.55333 34.4323 6.04 34.6323 6.64H34.4323L34.6523 4.84H38.0723C38.0323 5.29333 37.9923 5.75333 37.9523 6.22C37.9257 6.68667 37.9123 7.14667 37.9123 7.6V15H34.3923L34.3523 13.28H34.5923C34.3923 13.8667 33.9723 14.34 33.3323 14.7C32.7057 15.0467 32.0123 15.22 31.2523 15.22ZM32.3923 12.58C32.9923 12.58 33.479 12.3733 33.8523 11.96C34.2257 11.5333 34.4123 10.8533 34.4123 9.92C34.4123 8.98667 34.2257 8.31333 33.8523 7.9C33.479 7.47333 32.9923 7.26 32.3923 7.26C31.7923 7.26 31.3057 7.47333 30.9323 7.9C30.559 8.31333 30.3723 8.98667 30.3723 9.92C30.3723 10.8533 30.5523 11.5333 30.9123 11.96C31.2857 12.3733 31.779 12.58 32.3923 12.58ZM40.1234 15V4.84H43.6834V15H40.1234ZM40.0434 3.4V0.2H43.7834V3.4H40.0434ZM51.0852 15.22C49.6452 15.22 48.5585 14.88 47.8252 14.2C47.1052 13.5067 46.7452 12.46 46.7452 11.06V7.46H44.8452V4.84H46.7452V2.44L50.3052 1.6V4.84H52.7852V7.46H50.3052V10.92C50.3052 11.5067 50.4385 11.9 50.7052 12.1C50.9718 12.2867 51.2918 12.38 51.6652 12.38C51.8918 12.38 52.0852 12.3667 52.2452 12.34C52.4185 12.3 52.5985 12.2467 52.7852 12.18V14.92C52.4918 15.04 52.1985 15.12 51.9052 15.16C51.6252 15.2 51.3518 15.22 51.0852 15.22ZM58.1664 15.22C57.2864 15.22 56.5131 15.0133 55.8464 14.6C55.1797 14.1733 54.6531 13.56 54.2664 12.76C53.8931 11.96 53.7064 11.0133 53.7064 9.92C53.7064 8.81333 53.8931 7.86667 54.2664 7.08C54.6531 6.28 55.1797 5.67333 55.8464 5.26C56.5131 4.83333 57.2864 4.62 58.1664 4.62C58.9531 4.62 59.6597 4.80667 60.2864 5.18C60.9264 5.55333 61.3464 6.04 61.5464 6.64H61.3464L61.5664 4.84H64.9864C64.9464 5.29333 64.9064 5.75333 64.8664 6.22C64.8397 6.68667 64.8264 7.14667 64.8264 7.6V15H61.3064L61.2664 13.28H61.5064C61.3064 13.8667 60.8864 14.34 60.2464 14.7C59.6197 15.0467 58.9264 15.22 58.1664 15.22ZM59.3064 12.58C59.9064 12.58 60.3931 12.3733 60.7664 11.96C61.1397 11.5333 61.3264 10.8533 61.3264 9.92C61.3264 8.98667 61.1397 8.31333 60.7664 7.9C60.3931 7.47333 59.9064 7.26 59.3064 7.26C58.7064 7.26 58.2197 7.47333 57.8464 7.9C57.4731 8.31333 57.2864 8.98667 57.2864 9.92C57.2864 10.8533 57.4664 11.5333 57.8264 11.96C58.1997 12.3733 58.6931 12.58 59.3064 12.58ZM67.0375 15V7.6C67.0375 7.14667 67.0242 6.68667 66.9975 6.22C66.9708 5.75333 66.9308 5.29333 66.8775 4.84H70.3175L70.5175 6.6H70.2975C70.6308 5.96 71.1042 5.47333 71.7175 5.14C72.3308 4.79333 73.0242 4.62 73.7975 4.62C74.9842 4.62 75.8708 4.97333 76.4575 5.68C77.0575 6.37333 77.3575 7.46 77.3575 8.94V15H73.7975V9.1C73.7975 8.44667 73.6842 7.99333 73.4575 7.74C73.2308 7.47333 72.9042 7.34 72.4775 7.34C71.9175 7.34 71.4642 7.52667 71.1175 7.9C70.7708 8.26 70.5975 8.74 70.5975 9.34V15H67.0375ZM79.4408 19.54L78.6008 16.78C79.2408 16.66 79.7741 16.5267 80.2008 16.38C80.6408 16.2467 81.0008 16.06 81.2808 15.82C81.5608 15.58 81.7808 15.2667 81.9408 14.88L82.4408 13.72L82.3608 15.06L77.9208 4.84H81.6808L84.2808 11.58H83.6208L86.3008 4.84H89.8208L85.2608 15.22C84.9008 16.0333 84.5141 16.7 84.1008 17.22C83.7008 17.74 83.2608 18.1533 82.7808 18.46C82.3141 18.7667 81.8008 18.9933 81.2408 19.14C80.6941 19.3 80.0941 19.4333 79.4408 19.54ZM94.3578 15.22C93.4778 15.22 92.7045 15.0133 92.0378 14.6C91.3711 14.1733 90.8445 13.56 90.4578 12.76C90.0845 11.96 89.8978 11.0133 89.8978 9.92C89.8978 8.81333 90.0845 7.86667 90.4578 7.08C90.8445 6.28 91.3711 5.67333 92.0378 5.26C92.7045 4.83333 93.4778 4.62 94.3578 4.62C95.1445 4.62 95.8511 4.80667 96.4778 5.18C97.1178 5.55333 97.5378 6.04 97.7378 6.64H97.5378L97.7578 4.84H101.178C101.138 5.29333 101.098 5.75333 101.058 6.22C101.031 6.68667 101.018 7.14667 101.018 7.6V15H97.4978L97.4578 13.28H97.6978C97.4978 13.8667 97.0778 14.34 96.4378 14.7C95.8111 15.0467 95.1178 15.22 94.3578 15.22ZM95.4978 12.58C96.0978 12.58 96.5845 12.3733 96.9578 11.96C97.3311 11.5333 97.5178 10.8533 97.5178 9.92C97.5178 8.98667 97.3311 8.31333 96.9578 7.9C96.5845 7.47333 96.0978 7.26 95.4978 7.26C94.8978 7.26 94.4111 7.47333 94.0378 7.9C93.6645 8.31333 93.4778 8.98667 93.4778 9.92C93.4778 10.8533 93.6578 11.5333 94.0178 11.96C94.3911 12.3733 94.8845 12.58 95.4978 12.58ZM102.989 15V11.36H106.689V15H102.989Z" fill="black"/>
</svg>
